<svg aria-hidden="true" style="position: absolute; width: 0; height: 0; overflow: hidden;" version="1.1" xmlns="http://www.w3.org/2000/svg" xmlns:xlink="http://www.w3.org/1999/xlink">
<defs>
<symbol id="icon-burger" viewBox="0 0 38 32">
<path stroke-linejoin="miter" stroke-linecap="round" stroke-miterlimit="4" stroke-width="4.8" d="M3.2 3.2h32M3.2 16h32M3.2 28.8h32"></path>
</symbol>
<symbol id="icon-shopping-bag" viewBox="0 0 32 32">
<path stroke-linejoin="round" stroke-linecap="round" stroke-miterlimit="4" stroke-width="2" d="M12 8v1.333c0 2.209 1.791 4 4 4s4-1.791 4-4v-1.333"></path>
<path stroke-linejoin="round" stroke-linecap="butt" stroke-miterlimit="4" stroke-width="2" d="M20.815 4h-9.631c-2.607 0-4.832 1.885-5.261 4.457l-2.222 13.333c-0.542 3.251 1.965 6.21 5.261 6.21h14.075c3.296 0 5.803-2.959 5.261-6.21l-2.222-13.333c-0.429-2.572-2.654-4.457-5.261-4.457z"></path>
</symbol>
<symbol id="icon-ticket" viewBox="0 0 34 32">
<path d="M30.885 20.321v0zM30.885 11.679v0zM3.401 20.321v0zM3.401 11.679v0zM22.926 12.641c0.669-0.669 0.669-1.755 0-2.424s-1.755-0.669-2.424 0l2.424 2.424zM11.359 19.359c-0.669 0.669-0.669 1.755 0 2.424s1.755 0.669 2.424 0l-2.424-2.424zM8 28c-2.42 0-4.381-1.961-4.381-4.381h-3.429c0 4.313 3.496 7.81 7.81 7.81v-3.429zM30.667 23.619c0 2.42-1.961 4.381-4.381 4.381v3.429c4.313 0 7.81-3.496 7.81-7.81h-3.429zM26.286 4c2.42 0 4.381 1.961 4.381 4.381h3.429c0-4.313-3.496-7.81-7.81-7.81v3.429zM8 0.571c-4.313 0-7.81 3.496-7.81 7.81h3.429c0-2.42 1.961-4.381 4.381-4.381v-3.429zM31.446 18.701c-1.121-0.388-1.922-1.453-1.922-2.701h-3.429c0 2.754 1.77 5.090 4.229 5.941l1.122-3.24zM29.524 16c0-1.248 0.801-2.313 1.922-2.701l-1.122-3.24c-2.459 0.851-4.229 3.187-4.229 5.941h3.429zM4.762 16c0 1.248-0.801 2.313-1.922 2.701l1.122 3.24c2.459-0.851 4.229-3.187 4.229-5.941h-3.429zM2.84 13.299c1.121 0.388 1.922 1.453 1.922 2.701h3.429c0-2.754-1.77-5.090-4.229-5.941l-1.122 3.24zM34.095 9.905v-1.524h-3.429v1.524h3.429zM30.667 22.095v1.524h3.429v-1.524h-3.429zM0.191 22.095v1.524h3.429v-1.524h-3.429zM3.619 9.905v-1.524h-3.429v1.524h3.429zM26.286 28h-18.286v3.429h18.286v-3.429zM26.286 0.571h-18.286v3.429h18.286v-3.429zM2.84 18.701c-1.154 0.399-2.65 1.524-2.65 3.394h3.429c0 0.033-0.008 0.061-0.014 0.076-0.005 0.012-0.003 0.002 0.022-0.026 0.057-0.063 0.174-0.148 0.335-0.204l-1.122-3.24zM31.446 13.299c1.154-0.399 2.65-1.524 2.65-3.394h-3.429c0-0.033 0.008-0.061 0.014-0.076 0.005-0.012 0.003-0.002-0.021 0.026-0.057 0.063-0.174 0.148-0.335 0.204l1.122 3.24zM3.962 10.059c-0.161-0.056-0.279-0.141-0.335-0.204-0.025-0.027-0.027-0.038-0.022-0.026 0.006 0.015 0.014 0.043 0.014 0.076h-3.429c0 1.871 1.496 2.995 2.65 3.394l1.122-3.24zM30.324 21.941c0.161 0.056 0.279 0.141 0.335 0.204 0.025 0.027 0.027 0.038 0.021 0.026-0.006-0.015-0.014-0.043-0.014-0.076h3.429c0-1.871-1.496-2.995-2.65-3.394l-1.122 3.24zM12.381 11.429c0-0.105 0.085-0.19 0.19-0.19v3.429c1.788 0 3.238-1.45 3.238-3.238h-3.429zM12.571 11.238c0.105 0 0.19 0.085 0.19 0.19h-3.429c0 1.788 1.45 3.238 3.238 3.238v-3.429zM12.762 11.429c0 0.105-0.085 0.19-0.19 0.19v-3.429c-1.788 0-3.238 1.45-3.238 3.238h3.429zM12.571 11.619c-0.105 0-0.19-0.085-0.19-0.19h3.429c0-1.788-1.45-3.238-3.238-3.238v3.429zM21.524 20.571c0-0.105 0.085-0.19 0.19-0.19v3.429c1.788 0 3.238-1.45 3.238-3.238h-3.429zM21.714 20.381c0.105 0 0.19 0.085 0.19 0.19h-3.429c0 1.788 1.45 3.238 3.238 3.238v-3.429zM21.905 20.571c0 0.105-0.085 0.19-0.19 0.19v-3.429c-1.788 0-3.238 1.45-3.238 3.238h3.429zM21.714 20.762c-0.105 0-0.19-0.085-0.19-0.19h3.429c0-1.788-1.45-3.238-3.238-3.238v3.429zM20.502 10.216l-9.143 9.143 2.424 2.424 9.143-9.143-2.424-2.424z"></path>
</symbol>
<symbol id="icon-close" viewBox="0 0 35 32">
<path d="M31.814 4.614c0.781-0.781 0.781-2.047 0-2.828s-2.047-0.781-2.828 0l-11.386 11.386-11.386-11.386c-0.781-0.781-2.047-0.781-2.828 0s-0.781 2.047 0 2.828l11.386 11.386-11.386 11.386c-0.781 0.781-0.781 2.047 0 2.828s2.047 0.781 2.828 0l11.386-11.386 11.386 11.386c0.781 0.781 2.047 0.781 2.828 0s0.781-2.047 0-2.828l-11.386-11.386 11.386-11.386z"></path>
</symbol>
<symbol id="icon-arrow-right" viewBox="0 0 32 32">
<path stroke-linejoin="round" stroke-linecap="round" stroke-miterlimit="4" stroke-width="2.5" d="M6.667 16h18.667"></path>
<path stroke-linejoin="round" stroke-linecap="round" stroke-miterlimit="4" stroke-width="2.5" d="M17.333 24l8-8"></path>
<path stroke-linejoin="round" stroke-linecap="round" stroke-miterlimit="4" stroke-width="2.5" d="M17.333 8l8 8"></path>
</symbol>
<symbol id="icon-star" viewBox="0 0 32 32">
<path d="M14.945 2.537c0.39-0.939 1.72-0.939 2.11-0l3.513 8.447c0.165 0.396 0.537 0.666 0.964 0.7l9.119 0.731c1.013 0.081 1.424 1.346 0.652 2.007l-6.948 5.952c-0.326 0.279-0.467 0.716-0.368 1.133l2.123 8.899c0.236 0.989-0.84 1.77-1.707 1.24l-7.807-4.769c-0.366-0.223-0.826-0.223-1.191 0l-7.807 4.769c-0.868 0.53-1.943-0.252-1.707-1.24l2.123-8.899c0.099-0.417-0.043-0.854-0.368-1.133l-6.948-5.952c-0.772-0.661-0.361-1.926 0.652-2.007l9.119-0.731c0.427-0.034 0.799-0.305 0.964-0.7l3.513-8.447z"></path>
</symbol>
<symbol id="icon-down" viewBox="0 0 60 32">
<path stroke-linejoin="round" stroke-linecap="round" stroke-miterlimit="4" stroke-width="6" d="M5.090 4l24 24 24-24"></path>
</symbol>
<symbol id="icon-search" viewBox="0 0 32 32">
<path stroke-linejoin="round" stroke-linecap="round" stroke-miterlimit="4" stroke-width="2.1818" d="M25.455 25.455l5.091 5.091M29.091 15.273c0-7.632-6.187-13.818-13.818-13.818s-13.818 6.187-13.818 13.818c0 7.632 6.187 13.818 13.818 13.818s13.818-6.187 13.818-13.818z"></path>
</symbol>
<symbol id="icon-call" viewBox="0 0 32 32">
<path stroke-linejoin="round" stroke-linecap="butt" stroke-miterlimit="4" stroke-width="1.6667" d="M28 25.333v-2.195c0-1.090-0.664-2.071-1.676-2.476l-2.712-1.085c-1.288-0.515-2.755 0.043-3.376 1.283l-0.236 0.472c0 0-3.333-0.667-6-3.333s-3.333-6-3.333-6l0.472-0.236c1.241-0.62 1.798-2.088 1.283-3.376l-1.085-2.712c-0.405-1.012-1.386-1.676-2.476-1.676h-2.195c-1.473 0-2.667 1.194-2.667 2.667 0 11.782 9.551 21.333 21.333 21.333 1.473 0 2.667-1.194 2.667-2.667z"></path>
</symbol>
<symbol id="icon-lock" viewBox="0 0 32 32">
<path stroke-linejoin="miter" stroke-linecap="round" stroke-miterlimit="4" stroke-width="1.6667" d="M21.333 10.667h-10.667M21.333 10.667c2.946 0 5.333 2.388 5.333 5.333v8c0 2.946-2.388 5.333-5.333 5.333h-10.667c-2.946 0-5.333-2.388-5.333-5.333v-8c0-2.946 2.388-5.333 5.333-5.333M21.333 10.667v-2.667c0-2.946-2.388-5.333-5.333-5.333s-5.333 2.388-5.333 5.333v2.667M16 21.333v-2.667"></path>
</symbol>
<symbol id="icon-delivery" viewBox="0 0 32 32">
<path stroke-linejoin="miter" stroke-linecap="butt" stroke-miterlimit="4" stroke-width="1.6667" d="M18.667 25.333v-16M18.667 25.333h2.667M18.667 25.333h-6.667M18.667 9.333c0-2.946-2.388-5.333-5.333-5.333h-5.333c-2.946 0-5.333 2.388-5.333 5.333v10.667c0 2.487 1.702 4.576 4.005 5.167M18.667 9.333h4.279c0.677 0 1.33 0.258 1.824 0.721l3.721 3.489c0.538 0.504 0.843 1.208 0.843 1.945v7.178c0 1.473-1.194 2.667-2.667 2.667M26.667 25.333c0 1.473-1.194 2.667-2.667 2.667s-2.667-1.194-2.667-2.667M26.667 25.333c0-1.473-1.194-2.667-2.667-2.667s-2.667 1.194-2.667 2.667M12 25.333c0 1.473-1.194 2.667-2.667 2.667s-2.667-1.194-2.667-2.667c0-0.056 0.002-0.112 0.005-0.167M12 25.333c0-1.473-1.194-2.667-2.667-2.667-1.417 0-2.575 1.105-2.662 2.5"></path>
<path stroke-linejoin="round" stroke-linecap="round" stroke-miterlimit="4" stroke-width="1.6667" d="M13.333 10.667h-2.667"></path>
<path stroke-linejoin="round" stroke-linecap="round" stroke-miterlimit="4" stroke-width="1.6667" d="M13.333 16h-5.333"></path>
</symbol>
<symbol id="icon-money" viewBox="0 0 32 32">
<path fill="none" stroke="#141718" style="stroke: var(--color1, #141718)" stroke-linejoin="miter" stroke-linecap="butt" stroke-miterlimit="4" stroke-width="1.6667" d="M5.333 5.333h21.333c1.473 0 2.667 1.194 2.667 2.667v16c0 1.473-1.194 2.667-2.667 2.667h-21.333c-1.473 0-2.667-1.194-2.667-2.667v-16c0-1.473 1.194-2.667 2.667-2.667z"></path>
<path fill="none" stroke="#141718" style="stroke: var(--color1, #141718)" stroke-linejoin="miter" stroke-linecap="butt" stroke-miterlimit="4" stroke-width="1.6667" d="M18.667 16c0-1.473-1.194-2.667-2.667-2.667s-2.667 1.194-2.667 2.667c0 1.473 1.194 2.667 2.667 2.667s2.667-1.194 2.667-2.667z"></path>
<path d="M25.333 16c0-0.736-0.597-1.333-1.333-1.333s-1.333 0.597-1.333 1.333c0 0.736 0.597 1.333 1.333 1.333s1.333-0.597 1.333-1.333z"></path>
<path d="M9.333 16c0-0.736-0.597-1.333-1.333-1.333s-1.333 0.597-1.333 1.333c0 0.736 0.597 1.333 1.333 1.333s1.333-0.597 1.333-1.333z"></path>
</symbol>
<symbol id="icon-heart" viewBox="0 0 37 32">
<path d="M19.692 7.72l1.166-1.119c1.365-1.31 3.209-2.11 5.247-2.11 4.186 0 7.579 3.393 7.579 7.579 0 4.013-2.172 7.326-5.308 10.049-3.139 2.725-6.891 4.532-9.133 5.454-0.469 0.193-0.964 0.193-1.433 0-2.242-0.922-5.995-2.729-9.133-5.454-3.136-2.723-5.308-6.036-5.308-10.049 0-4.186 3.393-7.579 7.579-7.579 2.038 0 3.882 0.8 5.247 2.11l1.166 1.119c0.652 0.625 1.681 0.625 2.332 0zM18.526 4.171c-1.967-1.888-4.637-3.048-7.579-3.048-6.046 0-10.947 4.901-10.947 10.947 0 10.725 11.74 16.648 16.529 18.618 1.29 0.531 2.706 0.531 3.996 0 4.789-1.97 16.529-7.893 16.529-18.618 0-6.046-4.901-10.947-10.947-10.947-2.941 0-5.612 1.16-7.579 3.048z"></path>
</symbol>
<symbol id="icon-youtube" viewBox="0 0 32 32">
<path stroke-linejoin="miter" stroke-linecap="butt" stroke-miterlimit="4" stroke-width="2" d="M8 4h16c2.946 0 5.333 2.388 5.333 5.333v13.333c0 2.946-2.388 5.333-5.333 5.333h-16c-2.946 0-5.333-2.388-5.333-5.333v-13.333c0-2.946 2.388-5.333 5.333-5.333z"></path>
<path stroke-linejoin="miter" stroke-linecap="round" stroke-miterlimit="4" stroke-width="2" d="M13.93 11.631l6.352 3.176c0.983 0.491 0.983 1.894 0 2.385l-6.352 3.176c-0.887 0.443-1.93-0.201-1.93-1.193v-6.352c0-0.991 1.043-1.636 1.93-1.193z"></path>
</symbol>
<symbol id="icon-facebook" viewBox="0 0 32 32">
<path stroke-linejoin="round" stroke-linecap="round" stroke-miterlimit="4" stroke-width="2" d="M24 4h-4c-3.682 0-6.667 2.985-6.667 6.667v2.667h-5.333v5.333h5.333v9.333h5.333v-9.333h5.333v-5.333h-5.333v-2.667c0-0.736 0.597-1.333 1.333-1.333h4v-5.333z"></path>
</symbol>
<symbol id="icon-instagram" viewBox="0 0 32 32">
<path fill="none" stroke="#141718" style="stroke: var(--color1, #141718)" stroke-linejoin="miter" stroke-linecap="butt" stroke-miterlimit="4" stroke-width="2" d="M8 2.667h16c2.946 0 5.333 2.388 5.333 5.333v16c0 2.946-2.388 5.333-5.333 5.333h-16c-2.946 0-5.333-2.388-5.333-5.333v-16c0-2.946 2.388-5.333 5.333-5.333z"></path>
<path d="M25.333 8c0 0.736-0.597 1.333-1.333 1.333s-1.333-0.597-1.333-1.333c0-0.736 0.597-1.333 1.333-1.333s1.333 0.597 1.333 1.333z"></path>
<path fill="none" stroke="#141718" style="stroke: var(--color1, #141718)" stroke-linejoin="miter" stroke-linecap="butt" stroke-miterlimit="4" stroke-width="2" d="M22.667 16c0 3.682-2.985 6.667-6.667 6.667s-6.667-2.985-6.667-6.667c0-3.682 2.985-6.667 6.667-6.667s6.667 2.985 6.667 6.667z"></path>
</symbol>
<symbol id="icon-email" viewBox="0 0 32 32">
<path d="M5.436 8.708c0.208-0.683 0.843-1.18 1.594-1.18h18.667c0.751 0 1.386 0.497 1.594 1.18l-10.928 7.285-10.928-7.285zM3.363 9.176c-0 0.011-0 0.021-0 0.032v13.32c0 2.025 1.642 3.667 3.667 3.667h18.667c2.025 0 3.667-1.642 3.667-3.667v-13.32zM27.363 11.063v11.465c0 0.921-0.746 1.667-1.667 1.667h-18.667c-0.92 0-1.667-0.746-1.667-1.667v-11.465l10.445 6.963c0.336 0.224 0.774 0.224 1.109 0l10.445-6.963zM29.363 9.176c-0.010-2.017-1.648-3.648-3.667-3.648h-18.667c-2.019 0-3.657 1.632-3.667 3.648z"></path>
</symbol>
<symbol id="icon-instagram-white" viewBox="0 0 33 32">
<path fill="none" stroke="#fefefe" style="stroke: var(--color1, #fefefe)" stroke-linejoin="miter" stroke-linecap="butt" stroke-miterlimit="4" stroke-width="2" d="M8.667 2.667h16c2.946 0 5.333 2.388 5.333 5.333v16c0 2.946-2.388 5.333-5.333 5.333h-16c-2.946 0-5.333-2.388-5.333-5.333v-16c0-2.946 2.388-5.333 5.333-5.333z"></path>
<path fill="#fefefe" style="fill: var(--color1, #fefefe)" d="M26 8c0 0.736-0.597 1.333-1.333 1.333s-1.333-0.597-1.333-1.333c0-0.736 0.597-1.333 1.333-1.333s1.333 0.597 1.333 1.333z"></path>
<path fill="none" stroke="#fefefe" style="stroke: var(--color1, #fefefe)" stroke-linejoin="miter" stroke-linecap="butt" stroke-miterlimit="4" stroke-width="2" d="M23.333 16c0 3.682-2.985 6.667-6.667 6.667s-6.667-2.985-6.667-6.667c0-3.682 2.985-6.667 6.667-6.667s6.667 2.985 6.667 6.667z"></path>
</symbol>
<symbol id="icon-user" viewBox="0 0 32 32">
<path stroke-linejoin="round" stroke-linecap="butt" stroke-miterlimit="4" stroke-width="2" d="M24.745 26.065c-1.325-3.543-4.74-6.065-8.745-6.065s-7.421 2.522-8.745 6.065M24.745 26.065c2.811-2.445 4.588-6.047 4.588-10.065 0-7.364-5.97-13.333-13.333-13.333s-13.333 5.97-13.333 13.333c0 4.018 1.777 7.621 4.588 10.065M24.745 26.065c-2.341 2.036-5.399 3.268-8.745 3.268s-6.404-1.233-8.745-3.268M20 12c0 2.209-1.791 4-4 4s-4-1.791-4-4c0-2.209 1.791-4 4-4s4 1.791 4 4z"></path>
</symbol>
</defs>
</svg>
